HIERARCHY
ROOT Hips
{
	OFFSET -0.001795 -0.223333 0.028219
	CHANNELS 6 Xposition Yposition Zposition Zrotation Yrotation Xrotation 
	JOINT LeftUpLeg
	{
		OFFSET 0.069520 -0.091406 -0.006815
		CHANNELS 3 Zrotation Yrotation Xrotation
		JOINT LeftLeg
		{
			OFFSET 0.034277 -0.375199 -0.004496
			CHANNELS 3 Zrotation Yrotation Xrotation
			JOINT LeftFoot
			{
				OFFSET -0.013596 -0.397961 -0.043693
				CHANNELS 3 Zrotation Yrotation Xrotation
				JOINT LeftToe
				{
					OFFSET 0.026358 -0.055791 0.119288
					CHANNELS 3 Zrotation Yrotation Xrotation
					End Site
					{
						OFFSET 0.000000 0.000000 0.000000
					}
				}
			}
		}
	}
	JOINT RightUpLeg
	{
		OFFSET -0.067670 -0.090522 -0.004320
		CHANNELS 3 Zrotation Yrotation Xrotation
		JOINT RightLeg
		{
			OFFSET -0.038290 -0.382569 -0.008850
			CHANNELS 3 Zrotation Yrotation Xrotation
			JOINT RightFoot
			{
				OFFSET 0.015774 -0.398415 -0.042312
				CHANNELS 3 Zrotation Yrotation Xrotation
				JOINT RightToe
				{
					OFFSET -0.025372 -0.048144 0.123348
					CHANNELS 3 Zrotation Yrotation Xrotation
					End Site
					{
						OFFSET 0.000000 0.000000 0.000000
					}
				}
			}
		}
	}
	JOINT Spine
	{
		OFFSET -0.002533 0.108963 -0.026696
		CHANNELS 3 Zrotation Yrotation Xrotation
		JOINT Spine1
		{
			OFFSET 0.005487 0.135180 0.001092
			CHANNELS 3 Zrotation Yrotation Xrotation
			JOINT Spine2
			{
				OFFSET 0.001457 0.052922 0.025425
				CHANNELS 3 Zrotation Yrotation Xrotation
				JOINT Neck
				{
					OFFSET -0.002778 0.213870 -0.042857
					CHANNELS 3 Zrotation Yrotation Xrotation
					JOINT Head
					{
						OFFSET 0.005152 0.064970 0.051349
						CHANNELS 3 Zrotation Yrotation Xrotation
						End Site
						{
							OFFSET 0.000000 0.000000 0.000000
						}
					}
				}
				JOINT LeftShoulder
				{
					OFFSET 0.078845 0.121749 -0.034090
					CHANNELS 3 Zrotation Yrotation Xrotation
					JOINT LeftArm
					{
						OFFSET 0.090977 0.030469 -0.008868
						CHANNELS 3 Zrotation Yrotation Xrotation
						JOINT LeftForeArm
						{
							OFFSET 0.259612 -0.012772 -0.027456
							CHANNELS 3 Zrotation Yrotation Xrotation
							JOINT LeftHand
							{
								OFFSET 0.249234 0.008986 -0.001171
								CHANNELS 3 Zrotation Yrotation Xrotation
								End Site
								{
									OFFSET 0.000000 0.000000 0.000000
								}
							}
						}
					}
				}
				JOINT RightShoulder
				{
					OFFSET -0.081759 0.118833 -0.038615
					CHANNELS 3 Zrotation Yrotation Xrotation
					JOINT RightArm
					{
						OFFSET -0.096012 0.032551 -0.009143
						CHANNELS 3 Zrotation Yrotation Xrotation
						JOINT RightForeArm
						{
							OFFSET -0.253742 -0.013329 -0.021401
							CHANNELS 3 Zrotation Yrotation Xrotation
							JOINT RightHand
							{
								OFFSET -0.255298 0.007772 -0.005559
								CHANNELS 3 Zrotation Yrotation Xrotation
								End Site
								{
									OFFSET 0.000000 0.000000 0.000000
								}
							}
						}
					}
				}
			}
		}
	}
}
MOTION
Frames: 13
Frame Time: 0.050000
0.000000 0.958526 0.000000 0.007081 -16.729829 0.192915 4.530214 -0.115565 -4.621459 0.255421 -0.120465 6.007062 -1.015199 2.013518 17.281398 0.000000 0.000000 0.000000 0.801801 -0.253232 2.503964 1.271175 -0.065194 0.624964 -0.265118 -7.736609 12.259020 0.000000 0.000000 0.000000 0.608545 -0.293800 7.580555 -5.646225 2.830761 0.744650 2.565428 0.649706 0.534399 -0.012509 0.129403 -6.587561 0.000000 0.000000 0.000000 -21.760977 -5.814057 3.408871 -50.015053 -1.266806 -5.524000 -9.826688 -31.695308 4.466657 0.000000 0.000000 0.000000 20.054555 6.098076 -1.037417 53.247184 -3.231397 -5.650847 23.604775 35.184082 7.247410 0.000000 0.000000 0.000000 
-0.001806 0.957165 -0.004319 0.627550 -14.897981 0.175854 4.891443 -0.195272 -6.753569 -0.864157 0.101204 9.018455 -2.219272 0.130828 15.839922 0.000000 0.000000 0.000000 0.689913 -0.243191 2.419205 0.383706 -0.010431 0.391729 -0.235967 -7.333814 11.903488 0.000000 0.000000 0.000000 0.076539 -0.274775 8.437773 -5.996404 3.097921 1.758980 2.921730 -0.556911 -0.360092 -0.612443 0.567194 -7.999695 0.000000 0.000000 0.000000 -20.769594 -4.909241 2.879281 -50.121958 -1.157602 -5.475344 -12.286309 -35.665249 5.985407 0.000000 0.000000 0.000000 19.101061 6.157267 -0.958037 53.406018 -2.100649 -5.121475 26.557176 39.223114 9.059322 0.000000 0.000000 0.000000 
-0.002540 0.956117 -0.009040 0.757407 -12.187635 0.028243 4.711474 -0.366846 -10.258209 -1.086537 0.178962 14.718285 -2.266700 0.003613 14.053727 0.000000 0.000000 0.000000 0.693833 -0.264349 2.580101 1.106993 -0.094419 -0.246717 -1.892129 -10.306095 12.935382 0.000000 0.000000 0.000000 -0.282587 -0.294470 10.791639 -4.905384 2.429558 0.693064 2.519116 -0.517457 0.634093 -2.346642 1.820271 -7.116934 0.000000 0.000000 0.000000 -20.405996 -5.394718 2.804075 -49.426145 -0.638477 -5.644281 -17.781217 -40.207001 8.868753 0.000000 0.000000 0.000000 18.068553 7.259267 0.170863 54.252246 -1.070841 -5.008664 29.185516 45.648999 12.137729 0.000000 0.000000 0.000000 
-0.002011 0.955872 -0.012643 0.999034 -10.939432 1.051800 5.452088 -0.406551 -14.483421 -3.028621 0.815383 18.944844 -2.314585 0.550152 15.344835 0.000000 0.000000 0.000000 0.063755 -0.127252 1.398922 2.193906 -0.152629 0.964020 -2.365990 -10.072324 10.084354 0.000000 0.000000 0.000000 -0.733430 -0.254560 10.719114 -5.402986 2.751504 1.824594 3.051510 0.337177 -0.404998 -3.006404 2.340705 -8.230966 0.000000 0.000000 0.000000 -19.178550 -4.819075 2.022887 -48.462194 1.078912 -5.955886 -27.764410 -48.294562 15.479829 0.000000 0.000000 0.000000 16.124990 7.515276 0.854178 54.801394 -0.441246 -4.820386 37.355023 51.658595 18.281308 0.000000 0.000000 0.000000 
-0.000020 0.955005 -0.013067 1.223321 -8.545751 1.483037 5.590983 -0.523084 -18.074237 -4.270943 1.250149 23.153748 -0.932838 2.772937 14.259918 0.000000 0.000000 0.000000 -0.255236 -0.088209 1.103595 2.825375 -0.210915 1.590437 -3.523135 -11.621987 8.721811 0.000000 0.000000 0.000000 -0.028385 -0.378724 11.822756 -6.154148 3.026102 0.729551 3.024491 1.162537 0.740472 -3.127325 2.537698 -8.437233 0.000000 0.000000 0.000000 -19.842705 -5.684153 2.047264 -46.514944 3.262836 -6.533271 -37.016490 -57.942267 24.299551 0.000000 0.000000 0.000000 15.163392 6.591397 0.973985 54.202858 0.236568 -4.665409 51.043851 56.929119 29.231605 0.000000 0.000000 0.000000 
0.003631 0.953555 -0.008762 1.898616 -5.141817 1.541589 5.096165 -0.791808 -19.859734 -6.894279 1.972487 25.095090 1.992499 6.999465 10.520199 0.000000 0.000000 0.000000 -0.149542 -0.164246 1.817021 2.423930 -0.183919 2.029031 -5.681096 -15.186153 6.847165 0.000000 0.000000 0.000000 -0.223155 -0.400990 12.201208 -5.888432 2.810037 -0.363440 2.613361 2.453977 2.123551 -3.410143 2.952825 -9.991275 0.000000 0.000000 0.000000 -19.429964 -5.113833 1.011455 -45.119160 5.534718 -7.077702 -57.906354 -62.782606 40.520166 0.000000 0.000000 0.000000 14.583022 5.372450 1.080970 53.263779 1.490103 -4.248005 68.662271 60.612667 45.071859 0.000000 0.000000 0.000000 
0.009236 0.951211 -0.000578 1.523595 -1.521546 1.782330 4.584167 -1.115869 -21.651419 -8.266026 2.143859 26.144184 2.526631 8.268850 10.607453 0.000000 0.000000 0.000000 0.221714 -0.280581 2.731644 2.641500 -0.242137 1.551588 -6.952663 -17.637329 7.111845 0.000000 0.000000 0.000000 -0.083266 -0.478583 12.598661 -5.104329 2.408732 -0.873223 2.421128 2.733154 3.372377 -2.683970 2.688230 -11.359811 0.000000 0.000000 0.000000 -16.253546 -2.823223 -0.435887 -47.412040 6.689114 -7.938637 -75.358121 -63.890574 54.350687 0.000000 0.000000 0.000000 13.651664 4.984073 1.386371 54.043000 2.581225 -4.000146 80.682636 62.558488 57.586615 0.000000 0.000000 0.000000 
0.017705 0.948206 0.011929 0.979680 1.963021 1.436765 3.524489 -1.453961 -21.597176 -9.072804 2.022781 25.540159 2.729862 9.534671 13.114459 0.000000 0.000000 0.000000 0.863553 -0.393153 3.399864 2.091876 -0.170188 3.016544 -7.890697 -19.459927 7.441001 0.000000 0.000000 0.000000 -0.059748 -0.555364 13.168967 -5.304680 2.495131 -1.238019 3.265912 3.580807 4.370188 -2.842998 3.020033 -11.828034 0.000000 0.000000 0.000000 -15.474833 -1.990114 -1.236230 -47.310884 8.424894 -8.606614 -88.454178 -61.704925 62.462828 0.000000 0.000000 0.000000 11.418007 4.672847 1.708492 55.673714 3.664096 -3.669838 91.035782 64.940490 70.822673 0.000000 0.000000 0.000000 
0.029814 0.945133 0.028686 0.373852 4.358422 1.890954 2.174928 -1.677646 -20.454654 -9.110760 1.726880 23.674431 3.832106 11.599584 13.522981 0.000000 0.000000 0.000000 0.530511 -0.238167 2.099735 2.947026 -0.281223 7.045282 -8.352187 -20.363532 7.212004 0.000000 0.000000 0.000000 0.419319 -0.578045 11.784330 -5.778481 2.720577 -0.348870 3.686226 4.309665 4.873735 -2.577917 3.052918 -12.659816 0.000000 0.000000 0.000000 -13.471500 -0.935606 -1.774417 -48.362151 9.130521 -9.183391 -91.649530 -59.683452 62.358626 0.000000 0.000000 0.000000 11.199072 3.265884 1.343895 55.699524 4.416848 -3.329499 94.055084 65.225963 75.216269 0.000000 0.000000 0.000000 
0.046069 0.942585 0.049118 0.052761 8.064710 1.669308 0.486456 -1.712559 -17.521995 -8.873385 1.284337 21.046645 4.979533 13.151390 10.762819 0.000000 0.000000 0.000000 0.088275 -0.112668 1.054066 4.207744 -0.667346 11.725581 -10.617389 -24.367292 10.224946 0.000000 0.000000 0.000000 0.239551 -0.597267 11.756938 -5.617207 2.626810 -0.979546 3.932085 4.300397 6.063087 -3.081159 3.597115 -13.261055 0.000000 0.000000 0.000000 -13.252160 -0.669681 -2.157627 -48.813286 9.168119 -9.415227 -97.864203 -59.155583 66.629653 0.000000 0.000000 0.000000 11.587334 2.723257 1.419031 55.781723 3.758700 -3.765992 97.085938 64.854193 79.164403 0.000000 0.000000 0.000000 
0.065067 0.940834 0.071207 0.127738 12.610226 0.658183 -1.706359 -1.616348 -14.323706 -7.131302 0.497829 20.439692 3.343340 10.028818 7.936313 0.000000 0.000000 0.000000 -2.011728 0.268695 -3.217131 7.217544 -2.655218 24.512969 -12.238043 -25.815769 16.180266 0.000000 0.000000 0.000000 -0.552100 -0.576300 12.057085 -4.455721 2.082247 -0.096718 3.389487 4.222716 5.871966 -3.154091 3.826091 -13.039557 0.000000 0.000000 0.000000 -12.805674 -0.768895 -2.414298 -48.399620 9.305396 -9.358081 -100.110539 -59.108271 67.490107 0.000000 0.000000 0.000000 11.148656 1.306780 1.039924 55.067379 3.612944 -3.721834 98.280503 64.708742 81.515424 0.000000 0.000000 0.000000 
0.083442 0.937980 0.093827 -0.824942 15.793964 -1.113496 -1.833244 -1.227900 -11.274620 -6.811322 0.123991 22.080382 2.622635 7.255172 3.849752 0.000000 0.000000 0.000000 -3.712084 0.528890 -10.221609 8.168088 -6.033777 41.132692 -9.946153 -20.783259 25.547428 0.000000 0.000000 0.000000 -1.089691 -0.723248 14.291417 -3.719251 1.767255 -0.452505 4.351343 3.724519 6.463639 -3.453647 4.167586 -13.625218 0.000000 0.000000 0.000000 -14.029203 -1.602195 -2.469017 -48.308022 9.147309 -9.244969 -104.455933 -60.259019 72.618250 0.000000 0.000000 0.000000 9.746513 1.134722 1.008408 55.414216 2.390240 -4.260811 99.527969 64.975616 83.776573 0.000000 0.000000 0.000000 
0.099961 0.935456 0.117880 -1.519685 19.376662 -2.463487 -3.269231 -0.967884 -8.739709 -4.860037 -0.685650 22.773059 3.156264 7.634009 2.577985 0.000000 0.000000 0.000000 -3.859794 0.546184 -15.914098 5.461863 -7.208236 50.355736 -6.634967 -16.086271 32.451288 0.000000 0.000000 0.000000 -0.862687 -0.949869 15.764238 -3.421428 1.557145 0.811780 4.326011 0.997810 5.358523 -5.086570 5.078189 -14.256676 0.000000 0.000000 0.000000 -14.207848 -0.469769 -2.803862 -47.297500 8.006431 -8.547142 -107.623546 -60.788507 77.003403 0.000000 0.000000 0.000000 9.115069 0.844503 0.674224 55.645065 0.893101 -4.870084 97.157233 64.339203 79.724760 0.000000 0.000000 0.000000 
